<svg width="90" height="90" viewBox="0 0 90 90" fill="none" xmlns="http://www.w3.org/2000/svg">
<path opacity="0.5" d="M82.5 52.5V44.2425C82.5 34.3725 82.5 29.4338 79.6125 26.2275C79.3476 25.9316 79.0672 25.65 78.7725 25.3838C75.5663 22.5 70.6275 22.5 60.7575 22.5H59.355C55.0313 22.5 52.8675 22.5 50.85 21.9263C49.7429 21.6098 48.6758 21.1669 47.67 20.6063C45.84 19.59 44.31 18.0563 41.25 15L39.1875 12.9375C38.16 11.91 37.65 11.4 37.11 10.95C34.7875 9.0249 31.9385 7.84479 28.935 7.56375C28.2375 7.5 27.51 7.5 26.0625 7.5C22.7513 7.5 21.0975 7.5 19.7175 7.7625C16.7544 8.32209 14.0287 9.76176 11.8961 11.8937C9.76355 14.0256 8.32302 16.7508 7.7625 19.7138C7.5 21.0975 7.5 22.755 7.5 26.0625V52.5C7.5 66.6413 7.5 73.7138 11.895 78.105C16.29 82.4963 23.3588 82.5 37.5 82.5H52.5C66.6413 82.5 73.7138 82.5 78.105 78.105C82.4963 73.71 82.5 66.6413 82.5 52.5Z" fill="#4A40FF"/>
<path d="M45.9375 37.5C45.9375 36.7541 46.2338 36.0387 46.7613 35.5113C47.2887 34.9838 48.0041 34.6875 48.75 34.6875H67.5C68.2459 34.6875 68.9613 34.9838 69.4887 35.5113C70.0162 36.0387 70.3125 36.7541 70.3125 37.5C70.3125 38.2459 70.0162 38.9613 69.4887 39.4887C68.9613 40.0162 68.2459 40.3125 67.5 40.3125H48.75C48.0041 40.3125 47.2887 40.0162 46.7613 39.4887C46.2338 38.9613 45.9375 38.2459 45.9375 37.5Z" fill="#4A40FF"/>
</svg>
