<svg width="75" height="75" viewBox="0 0 75 75" fill="none" xmlns="http://www.w3.org/2000/svg">
<path d="M46.069 14.0625H64.7346C66.0373 14.0624 67.3258 14.3337 68.5178 14.8593C69.7099 15.3849 70.7793 16.1532 71.6578 17.1151C72.5364 18.077 73.2048 19.2115 73.6205 20.4461C74.0362 21.6808 74.19 22.9885 74.0721 24.2859L71.0861 57.0984C70.8745 59.4277 69.7998 61.5938 68.073 63.1713C66.3463 64.7489 64.0922 65.6241 61.7533 65.625H13.2424C10.9035 65.6241 8.64943 64.7489 6.92269 63.1713C5.19594 61.5938 4.12125 59.4277 3.90958 57.0984L0.923639 24.2859C0.727876 22.1149 1.29475 19.9436 2.52676 18.1453L2.34395 14.0625C2.34395 11.5761 3.33167 9.19153 5.08983 7.43337C6.84798 5.67522 9.23255 4.6875 11.719 4.6875H28.9315C31.4177 4.68803 33.8018 5.6761 35.5596 7.43437L39.4408 11.3156C41.1986 13.0739 43.5828 14.062 46.069 14.0625ZM7.05958 14.625C8.06583 14.2531 9.13458 14.0656 10.2658 14.0625H35.5596L32.2455 10.7484C31.3666 9.8693 30.1746 9.37527 28.9315 9.375H11.719C10.491 9.37478 9.31204 9.85639 8.43548 10.7163C7.55892 11.5762 7.05478 12.7457 7.03145 13.9734L7.05958 14.625Z" fill="#4A40FF"/>
</svg>
